<svg width="20" height="20" viewBox="0 0 20 20" fill="none" xmlns="http://www.w3.org/2000/svg">
<g clip-path="url(#clip0_1302_20692)">
<path d="M7.57274 7.49948C7.76867 6.94249 8.15541 6.47282 8.66445 6.17365C9.1735 5.87448 9.77199 5.76512 10.3539 5.86494C10.9359 5.96476 11.4637 6.26731 11.844 6.71902C12.2242 7.17073 12.4323 7.74243 12.4315 8.33288C12.4315 9.99968 9.93126 10.8331 9.93126 10.8331M9.99806 14.167H10.0064M18.3321 10C18.3321 14.6028 14.6008 18.334 9.99806 18.334C5.39532 18.334 1.66406 14.6028 1.66406 10C1.66406 5.39727 5.39532 1.66602 9.99806 1.66602C14.6008 1.66602 18.3321 5.39727 18.3321 10Z" stroke="#F4A261" stroke-width="1.8" stroke-linecap="round"/>
</g>
<defs>
<clipPath id="clip0_1302_20692">
<rect width="20" height="20" fill="white"/>
</clipPath>
</defs>
</svg>
