<svg width="24" height="24" viewBox="0 0 24 24" fill="none" xmlns="http://www.w3.org/2000/svg">
<path d="M15.001 18.0013H10.0006M18.0013 14.001H10.0006M4.00016 22.0016H20.0014C20.5319 22.0016 21.0407 21.7909 21.4158 21.4158C21.7909 21.0407 22.0016 20.5319 22.0016 20.0014V4.00016C22.0016 3.46968 21.7909 2.96094 21.4158 2.58583C21.0407 2.21073 20.5319 2 20.0014 2H8.00048C7.47 2 6.96126 2.21073 6.58615 2.58583C6.21105 2.96094 6.00032 3.46968 6.00032 4.00016V20.0014C6.00032 20.5319 5.78959 21.0407 5.41449 21.4158C5.03938 21.7909 4.53064 22.0016 4.00016 22.0016ZM4.00016 22.0016C3.46968 22.0016 2.96094 21.7909 2.58583 21.4158C2.21073 21.0407 2 20.5319 2 20.0014V11.0007C2 10.4702 2.21073 9.9615 2.58583 9.58639C2.96094 9.21129 3.46968 9.00056 4.00016 9.00056H6.00032M11.0007 6.00032H17.0012C17.5535 6.00032 18.0013 6.44807 18.0013 7.0004V9.00056C18.0013 9.55289 17.5535 10.0006 17.0012 10.0006H11.0007C10.4484 10.0006 10.0006 9.55289 10.0006 9.00056V7.0004C10.0006 6.44807 10.4484 6.00032 11.0007 6.00032Z" stroke="#A9421F" stroke-width="1.8" stroke-linecap="round"/>
</svg>
