<svg width="24" height="24" viewBox="0 0 24 24" fill="none" xmlns="http://www.w3.org/2000/svg">
<path d="M15 1.99903H11C10.4696 1.99903 9.96086 2.20976 9.58578 2.58486C9.21071 2.95997 9 3.46871 9 3.99919V15.0001C9 15.5305 9.21071 16.0393 9.58578 16.4144C9.96086 16.7895 10.4696 17.0002 11 17.0002H19C19.5304 17.0002 20.0391 16.7895 20.4142 16.4144C20.7893 16.0393 21 15.5305 21 15.0001V7.99951M15 1.99903C15.3169 1.99825 15.6308 2.06025 15.9236 2.18144C16.2164 2.30262 16.4823 2.4806 16.706 2.70509L20.294 6.29338C20.5185 6.51707 20.6964 6.783 20.8176 7.07584C20.9388 7.36867 21.0008 7.68259 21 7.99951M15 1.99903V6.99944C15 7.26467 15.1054 7.51905 15.2929 7.7066C15.4804 7.89415 15.7348 7.99952 16 7.99952L21 7.99951M5 6.99943C4.46957 6.99943 3.96086 7.21016 3.58579 7.58526C3.21071 7.96036 3 8.46911 3 8.99959V20.0005C3 20.5309 3.21071 21.0397 3.58579 21.4148C3.96086 21.7899 4.46957 22.0006 5 22.0006H13C13.3511 22.0006 13.6959 21.9082 14 21.7326C14.304 21.5571 14.5565 21.3046 14.732 21.0005" stroke="#D65A2C" stroke-width="1.8" stroke-linecap="round"/>
</svg>
